<svg xmlns="http://www.w3.org/2000/svg" xmlns:xlink="http://www.w3.org/1999/xlink" viewBox="494 1656 104 104"><defs><style>.a{fill:#fff;}.b{clip-path:url(#a);}.c{fill:#c467c3;}</style><clipPath id="a"><rect width="66.305" height="66.305"/></clipPath></defs><circle class="a" cx="52" cy="52" r="52" transform="translate(494 1656)"/><g class="b" transform="translate(513 1675)"><path class="c" d="M41.984,5.141v6.441a22.773,22.773,0,1,1-9.993.284l.995,4.5,5.825-9.141L29.718,1.4l.947,4.262a29.116,29.116,0,1,0,11.319-.521Z" transform="translate(-4.474 -0.737)"/><path class="c" d="M67.993,45.052V41.5H58.521l-1.468,8.241,3.078,1.373a2.968,2.968,0,0,1,2.226-1.089,2.347,2.347,0,0,1,2.415,2.321,2.382,2.382,0,0,1-2.6,2.368A4.816,4.816,0,0,1,58.8,52.961l-2.6,2.7a7.775,7.775,0,0,0,5.92,2.889c3.457,0,7.151-2.037,7.151-6.062A5.468,5.468,0,0,0,63.683,46.8a5.215,5.215,0,0,0-2.557.568l.426-2.321h6.441Z" transform="translate(-29.583 -21.845)"/><path class="c" d="M39.42,85.247V84.3H36.673L36.01,87l-.71-2.7H32.6v.947h.379V88.42H32.6v.947h1.942V88.42h-.426V85.579h.047a3.207,3.207,0,0,0,.142.9l.805,2.842h1.468l.758-2.794a8.205,8.205,0,0,0,.189-.947h.047V88.42h-.379v.947H39.42V88.42h-.379V85.247Z" transform="translate(-17.16 -44.375)"/><path class="c" d="M50.168,85.247V84.3H47.8v.947h.474v3.126H47.8v.947h2.368v-.947h-.426V85.247Z" transform="translate(-25.162 -44.375)"/><path class="c" d="M57.057,89.32H58.62V85.247h.474V84.3H56.915v.947h.474v1.7L55.637,84.3H53.6v.947h.426V88.42H53.6v.9h2.179v-.9h-.521v-1.8Z" transform="translate(-28.215 -44.375)"/><path class="c" d="M68.4,89.41c1.326,0,2.037-.758,2.037-2.463V85.195h.379v-.947H68.736v.947h.379V86.71c0,1.231-.284,1.421-.71,1.421-.474,0-.71-.237-.71-1.421V85.147h.379V84.2H65.8v.947h.379V86.9C66.179,88.6,66.984,89.362,68.4,89.41Z" transform="translate(-34.637 -44.322)"/><path class="c" d="M81.731,86.194V84.3H76.9v1.894h1.089v-.947H78.6v3.126h-.616v.947h2.7v-.947h-.616V85.247h.616v.947Z" transform="translate(-40.48 -44.375)"/><path class="c" d="M87.7,88.373v.947h4.31V87.71H90.778v.663H89.642V87.189h1.373v-.947H89.642v-.995h1.137v.663H92.01V84.3H87.7v.947h.426v3.126Z" transform="translate(-46.165 -44.375)"/><path class="c" d="M99.826,88.126c-.284,0-.9-.095-.9-.71H97.6v1.8h1.231l.095-.568a1.91,1.91,0,0,0,1.516.663c.852,0,1.894-.379,1.894-1.516,0-1.7-2.842-1.516-2.842-2.273,0-.237.284-.379.474-.379a.809.809,0,0,1,.9.852h1.279v-1.8h-1.231l-.095.616a1.8,1.8,0,0,0-3.221.852c0,1.847,2.747,1.61,2.747,2.131C100.442,88.078,100.063,88.126,99.826,88.126Z" transform="translate(-51.376 -44.27)"/></g></svg>