<svg xmlns="http://www.w3.org/2000/svg" viewBox="218 1656 104 104"><defs><style>.a{fill:#fff;}.b{fill:#c467c3;}</style></defs><circle class="a" cx="52" cy="52" r="52" transform="translate(218 1656)"/><g transform="translate(246 1678)"><path class="b" d="M44.4,47.524c-3.221-3.173-6.2-4.4-9.946-6.015-1.421-.616-3.031-1.279-4.783-2.131h0c4.262-.521,5.541-.9,7.815-3.031l.047-.047V36.2a12.336,12.336,0,0,1,.379-2.6c.095-.332.142-.758.237-1.326a27.445,27.445,0,0,0-.663-16.339q-.5-1.208-.995-2.273L34.593,10.44l-.426-.568c.379-2.131.805-4.215,1.137-6.2A.606.606,0,0,0,35.019,3a22.236,22.236,0,0,0-22.5,0,.606.606,0,0,0-.284.663c.379,1.989.758,4.073,1.137,6.2l-.426.568-1.894,3.221c-.332.71-.663,1.421-.995,2.273C8.213,20.67,8.023,26.354,9.4,32.274c.095.568.189.995.237,1.326a17.525,17.525,0,0,1,.379,2.6V36.3l.047.047c2.273,2.131,3.552,2.557,7.815,3.031h0c-1.752.852-3.363,1.516-4.783,2.131-3.741,1.61-6.725,2.842-9.946,6.015C.683,49.939-.549,53.444-.5,57.9a1.558,1.558,0,0,0,1.61,1.563H46.2a1.587,1.587,0,0,0,1.61-1.563C48.091,53.4,46.907,49.939,44.4,47.524ZM34.072,3.9c-.284,1.516-.568,3.126-.9,4.783-.142.852-.332,1.7-.474,2.6a22.439,22.439,0,0,0-17.666,0c-.189-.9-.332-1.752-.474-2.6-.284-1.61-.616-3.221-.9-4.783A20.883,20.883,0,0,1,34.072,3.9ZM17.78,33.316a24.379,24.379,0,0,1-3.5-12.5v-.568c8.1-.947,12.977-3.031,15.866-6.915.047,2.131.521,4.073,3.315,6.583v.9a24.937,24.937,0,0,1-2.984,11.7l-1.137,1.7c-1.563,2.037-3.41,3.363-5.494,3.363C21.521,37.578,19.437,35.873,17.78,33.316Zm8.43,19.37a3.183,3.183,0,0,1-4.689,0c-2.794-3.6-6.583-6.583-5.778-11.793.805-.332,1.658-.758,2.51-1.184l.047-.047.047-.047c.047-.095.095-.142.095-.237.521-1.279.332-2.747-.237-4.594,1.563,1.942,3.5,3.173,5.589,3.173s4.026-1.231,5.589-3.173c-.568,1.847-.758,3.315-.237,4.594.047.047.047.142.095.189l.047.047.047.047c.9.426,1.752.805,2.51,1.184C32.793,46.1,29,49.087,26.21,52.686Z" transform="translate(0.503 0.05)"/><path class="b" d="M46.126,11.01H48.4V8.973h2.226V6.937H48.4V4.9H46.126V6.937H43.9V8.973h2.226Z" transform="translate(-22.871 -2.556)"/></g></svg>