<svg xmlns="http://www.w3.org/2000/svg" viewBox="770 1656 104 104"><defs><style>.a{fill:#fff;}.b{fill:#c467c3;}</style></defs><circle class="a" cx="52" cy="52" r="52" transform="translate(770 1656)"/><g transform="translate(788 1673)"><path class="b" d="M39.8,14.095a7.394,7.394,0,1,0,7.672,7.1A7.375,7.375,0,0,0,39.8,14.095Zm.142,13.545a6.159,6.159,0,1,1,6.3-6.015A6.146,6.146,0,0,1,39.941,27.64Z" transform="translate(-17.212 -7.417)"/><path class="b" d="M42.27,18.887a5.126,5.126,0,1,0,5.446,4.783A5.1,5.1,0,0,0,42.27,18.887ZM43.5,20.829l.237,3.315c0,.284-.474.568-.758.616l-2.794.189a.523.523,0,1,1-.095-1.042l2.321-.142-.189-2.842a.658.658,0,0,1,.616-.568C43.123,20.308,43.5,20.545,43.5,20.829Z" transform="translate(-19.731 -9.935)"/><path class="b" d="M62.41,46a5.2,5.2,0,0,0-5.21,5.21A5.257,5.257,0,0,0,58.81,55a19.211,19.211,0,0,1,7.436-.332,5.221,5.221,0,0,0,1.326-3.457A5.125,5.125,0,0,0,62.41,46Zm2.936,6.062-3.363.142c-.284,0-.568-.474-.568-.758L61.368,48.6a.565.565,0,0,1,.521-.568.526.526,0,0,1,.521.521l.095,2.321,2.842-.095c.284,0,.521.332.568.616C65.867,51.683,65.678,52.062,65.346,52.062Z" transform="translate(-30.114 -24.214)"/><g transform="translate(30.305 0)"><path class="b" d="M78.774,7.293a7.389,7.389,0,1,0-7.246,7.53A7.462,7.462,0,0,0,78.774,7.293ZM65.229,7.151a6.162,6.162,0,1,1,5.92,6.394A6.178,6.178,0,0,1,65.229,7.151Z" transform="translate(-63.996 0.001)"/><path class="b" d="M78.976,9.767a5.139,5.139,0,1,0-5.068,5.21A5.134,5.134,0,0,0,78.976,9.767Zm-6.062,3.41-.047-3.363c0-.284.332-.284.663-.284l2.794-.047a.521.521,0,0,1,0,1.042l-2.179.047.047,2.557c0,.284-.332.521-.663.521A.57.57,0,0,1,72.914,13.177Z" transform="translate(-66.471 -2.473)"/></g><path class="b" d="M65,52.277a6.258,6.258,0,1,0-9.709.426,13.134,13.134,0,0,0-1.231.474A7.472,7.472,0,1,1,67.419,48.63a7.348,7.348,0,0,1-1.137,3.931C65.95,52.467,65.477,52.372,65,52.277Z" transform="translate(-27.64 -21.634)"/><path class="b" d="M.431,74.992a1.25,1.25,0,0,0,.9.332,1.262,1.262,0,0,0,.947-.426c.426-.474.9-.9,1.421-1.373a2.188,2.188,0,0,0,.332-.332,6.31,6.31,0,0,0,3.694,1.279v.095c-.332,5.731,2.6,11.082,7.53,15.108a43.529,43.529,0,0,1,4.357,10.751H26.1a37.966,37.966,0,0,0,1.373-4.783,38.848,38.848,0,0,0,7.151,1.089A39.913,39.913,0,0,0,42.2,96.4c1.326,1.989,2.889,4.073,2.889,4.073h7.53a54.932,54.932,0,0,1-.474-7.151,22.932,22.932,0,0,0,9.188-8.051h.047c6.536,0,7.72-6.915,6.11-10.656-.663-1.563-.047-.095-4.12-1.089a19.485,19.485,0,0,0-5.873-9.8c2.321-.663,5.162-4.12,5.162-4.12-6.583-5.967-14.777-1.7-14.777-1.7A35.837,35.837,0,0,0,40.829,56a8.712,8.712,0,0,1-.71,3.363,17.453,17.453,0,0,1,2.415.71l-.805,2.179a29.959,29.959,0,0,0-3.126-.805c-.474-.095-1.042-.189-1.61-.284a22.094,22.094,0,0,0-3.694-.284c-3.221,0-6.015.616-7.341,1.516-.047.047-.142.047-.189.095a15.968,15.968,0,0,0-2.131,1.184l-1.326-1.942a18.038,18.038,0,0,1,2.463-1.373,8.228,8.228,0,0,1-1.137-3.173c-8.051,2.6-14.066,8.051-15.629,14.729A4.225,4.225,0,0,1,5.782,71.3,6.787,6.787,0,0,0,7.2,68.172c.284-1.894-.142-3.221-1.137-3.789-.616-.332-1.7-.474-3.126.852a4.689,4.689,0,0,0-.852,5.683,1.187,1.187,0,0,0,.189.332,2.188,2.188,0,0,0-.332.332c-.521.521-1.089.995-1.61,1.563A1.332,1.332,0,0,0,.431,74.992Zm53.8-3.552a1.7,1.7,0,1,1,1.7,1.7A1.7,1.7,0,0,1,54.232,71.44ZM4.741,67.177h0a2.913,2.913,0,0,1-.047.616,4.019,4.019,0,0,1-.474,1.326A1.911,1.911,0,0,1,4.741,67.177Z" transform="translate(-0.008 -29.478)"/></g></svg>