<svg xmlns="http://www.w3.org/2000/svg" viewBox="598.3 2900.71 171.7 52.581"><defs><style>.a{fill:#4cc0bd;}.b{fill:#5e5f5f;}.c{fill:#07b8bc;}.d{fill:#424242;}</style></defs><g transform="translate(598.3 2908.033)"><path class="a" d="M0,12.7H12.644c7.449,0,12.269,3.818,12.269,10.328v.063c0,6.948-5.321,10.579-12.644,10.579H8.137v8.388H0ZM12.018,27.285c2.879,0,4.695-1.5,4.695-3.818V23.4c0-2.5-1.753-3.881-4.695-3.881H8.137v7.762Z" transform="translate(0 -12.074)"/><path class="a" d="M41.3,27.1v-.063c0-8.45,6.823-15.336,15.9-15.336,9.139,0,15.837,6.76,15.837,15.211v.063c0,8.45-6.823,15.336-15.9,15.336C48.06,42.372,41.3,35.549,41.3,27.1Zm23.411,0v-.063a7.645,7.645,0,0,0-7.574-7.95c-4.507,0-7.449,3.631-7.449,7.887v.063c0,4.257,3.067,7.95,7.511,7.95C61.706,34.986,64.711,31.355,64.711,27.1Z" transform="translate(-15.448 -11.7)"/><path class="a" d="M94.4,12.7h13.959c4.507,0,7.637,1.189,9.577,3.192a9.292,9.292,0,0,1,2.629,6.886v.063a9.325,9.325,0,0,1-6.072,9.076L121.5,42.183h-9.452l-5.947-8.889h-3.568v8.889H94.4Zm13.583,14.084c2.754,0,4.382-1.377,4.382-3.505v-.063c0-2.316-1.69-3.505-4.444-3.505H102.6v7.073Z" transform="translate(-35.31 -12.074)"/><path class="a" d="M146.326,19.836H137.5V12.7h25.852v7.136h-8.826V42.12h-8.137V19.836Z" transform="translate(-51.431 -12.074)"/><path class="a" d="M181.8,12.7h23.661v6.948H189.875v4.444h14.147V30.54H189.875v4.695h15.837v6.948H181.8Z" transform="translate(-68.001 -12.074)"/><path class="a" d="M234.019,12.3h7.887l12.519,29.67h-8.763l-2.128-5.258H232.2l-2.128,5.258H221.5Zm7.2,18.09L237.963,22l-3.318,8.388Z" transform="translate(-82.851 -11.924)"/><path class="b" d="M35.1,70.6h1.815v3.255h3.318V70.6h1.815v8.2H40.233V75.482H36.915V78.8H35.1Z" transform="translate(-13.129 -33.731)"/><path class="b" d="M54.8,70.6H61v1.627H56.615v1.69H60.5v1.627H56.615V77.3H61.06v1.627H54.8V70.6Z" transform="translate(-20.498 -33.731)"/><path class="b" d="M75.205,70.6H76.9L80.4,78.863H78.523l-.751-1.815H74.329l-.751,1.815H71.7Zm1.94,4.82-1.127-2.692-1.064,2.629h2.191Z" transform="translate(-26.819 -33.731)"/><path class="b" d="M93.1,70.6h1.815v6.573h4.069V78.8H93.1Z" transform="translate(-34.823 -33.731)"/><path class="b" d="M123.743,70.6h1.69l3.505,8.263H127.06l-.751-1.815h-3.443l-.751,1.815H120.3Zm1.94,4.82-1.127-2.629-1.064,2.629Z" transform="translate(-44.997 -33.731)"/><path class="b" d="M141.5,72.29H139V70.6h6.823v1.69h-2.5v6.573H141.5Z" transform="translate(-51.992 -33.731)"/><path class="b" d="M168.7,70.6h1.815v3.255h3.318V70.6h1.815v8.2h-1.815V75.482h-3.318V78.8H168.7Z" transform="translate(-63.101 -33.731)"/><path class="b" d="M187.9,74.657h0a4.351,4.351,0,0,1,8.7,0h0a4.251,4.251,0,0,1-4.382,4.257A4.2,4.2,0,0,1,187.9,74.657Zm6.823,0h0a2.54,2.54,0,0,0-2.5-2.629,2.436,2.436,0,0,0-2.441,2.566h0a2.525,2.525,0,0,0,2.5,2.566A2.35,2.35,0,0,0,194.723,74.657Z" transform="translate(-70.283 -33.656)"/><path class="b" d="M209.9,70.6h1.94l2.191,3.505L216.16,70.6h1.94v8.2h-1.815V73.417l-2.316,3.505h-.063l-2.253-3.505v5.321H209.9Z" transform="translate(-78.512 -33.731)"/><path class="b" d="M231.6,70.6h6.2v1.627h-4.382v1.69H237.3v1.627h-3.881V77.3h4.444v1.627H231.6Z" transform="translate(-86.628 -33.731)"/><path class="c" d="M.1,12.7H12.744c7.449,0,12.269,3.818,12.269,10.328v.063c0,6.948-5.321,10.579-12.644,10.579H8.3v8.388H.1ZM12.181,27.285c2.879,0,4.695-1.5,4.695-3.818V23.4c0-2.5-1.753-3.881-4.695-3.881H8.363v7.762Z" transform="translate(-0.037 -12.074)"/><path class="c" d="M41.5,27.1v-.063c0-8.45,6.823-15.336,15.9-15.336s15.837,6.76,15.837,15.211v.063c0,8.45-6.823,15.336-15.9,15.336C48.2,42.372,41.5,35.549,41.5,27.1Zm23.348,0v-.063a7.645,7.645,0,0,0-7.574-7.95c-4.444,0-7.449,3.631-7.449,7.887v.063a7.645,7.645,0,0,0,7.574,7.95C61.844,34.986,64.848,31.355,64.848,27.1Z" transform="translate(-15.523 -11.7)"/><path class="c" d="M94.463,12.7h13.9c4.507,0,7.637,1.189,9.577,3.192a9.055,9.055,0,0,1,2.629,6.886v.063a9.325,9.325,0,0,1-6.072,9.076L121.5,42.183h-9.452l-5.947-8.889h-3.568v8.889H94.4V12.7Zm13.583,14.084c2.754,0,4.382-1.377,4.382-3.505v-.063c0-2.316-1.69-3.505-4.382-3.505h-5.321v7.073Z" transform="translate(-35.31 -12.074)"/><path class="c" d="M146.426,19.836H137.6V12.7h25.852v7.136h-8.826V42.12h-8.137V19.836Z" transform="translate(-51.468 -12.074)"/><path class="c" d="M181.9,12.7h23.661v6.948H189.975v4.444h14.147V30.54H189.975v4.695h15.837v6.948H181.9V12.7Z" transform="translate(-68.038 -12.074)"/><path class="c" d="M234.219,12.3h7.824l12.582,29.67h-8.763l-2.128-5.258H232.4l-2.128,5.258H221.7Zm7.136,18.09L238.1,22l-3.318,8.388Z" transform="translate(-82.925 -11.924)"/></g><g transform="translate(762.363 2900.71)"><path class="d" d="M265.918.438a3.269,3.269,0,0,1,1.315.25,6.2,6.2,0,0,1,1.064.689,2.828,2.828,0,0,1,.689,1.064,3.269,3.269,0,0,1,.25,1.315,3.269,3.269,0,0,1-.25,1.315,6.2,6.2,0,0,1-.689,1.064,2.828,2.828,0,0,1-1.064.689,3.576,3.576,0,0,1-2.629,0,6.2,6.2,0,0,1-1.064-.689,2.828,2.828,0,0,1-.689-1.064,3.269,3.269,0,0,1-.25-1.315,3.269,3.269,0,0,1,.25-1.315,6.2,6.2,0,0,1,.689-1.064A2.828,2.828,0,0,1,264.6.689a4.875,4.875,0,0,1,1.315-.25m0-.438A3.834,3.834,0,0,0,262.1,3.818a3.794,3.794,0,0,0,3.818,3.818,3.834,3.834,0,0,0,3.818-3.818A3.794,3.794,0,0,0,265.918,0Z" transform="translate(-262.1)"/><g transform="translate(2.504 2.003)"><path class="d" d="M268.416,6.831h.626l-.188-.188-.939-1.189h0a1.127,1.127,0,0,0,0-2.253H266.1V6.831h.438V5.391h.751Zm-1.878-3.192h1.315a.627.627,0,0,1,.626.626.673.673,0,0,1-.626.626h-1.315Z" transform="translate(-266.1 -3.2)"/></g></g></svg>