<svg xmlns="http://www.w3.org/2000/svg" xmlns:xlink="http://www.w3.org/1999/xlink" viewBox="992 2381.727 120.943 120.82"><defs><style>.a{fill:#3c3c3b;}.b{fill:url(#a);}.c{fill:#fff;}</style><radialGradient id="a" cx="85.669" cy="1.534" r="126.376" gradientTransform="translate(0.087 0.002)" gradientUnits="userSpaceOnUse"><stop offset="0.03" stop-color="#ffffe1"/><stop offset="0.081" stop-color="#f7fee1"/><stop offset="0.16" stop-color="#e1fae1"/><stop offset="0.257" stop-color="#bdf4e1"/><stop offset="0.368" stop-color="#8bece1"/><stop offset="0.491" stop-color="#4ce2e1"/><stop offset="0.531" stop-color="#36dee1"/><stop offset="0.61" stop-color="#33d3dd"/><stop offset="0.748" stop-color="#2db5d2"/><stop offset="0.929" stop-color="#2286c0"/><stop offset="1" stop-color="#1d71b8"/></radialGradient></defs><g transform="translate(992 2381.727)"><g transform="translate(0)"><g transform="translate(32.638 33.348)"><path class="a" d="M66.34,60.934c-3.925,15.823-15.7,26.495-26.249,23.919C29.419,82.277,24.022,67.313,27.825,51.49c3.925-15.823,15.7-26.495,26.249-23.919C64.745,30.147,70.265,45.111,66.34,60.934Z" transform="translate(-26.609 -27.187)"/></g><path class="b" d="M60.471,120.82a60.317,60.317,0,1,1,45.875-20.975l1.717,17.3-16.682-4.661A62.47,62.47,0,0,1,60.471,120.82Z" transform="translate(0)"/><path class="c" d="M58.059,108.717a50.659,50.659,0,1,1,50.659-50.659A50.752,50.752,0,0,1,58.059,108.717Zm0-96.779a46.059,46.059,0,1,0,45.875,46.12A46.224,46.224,0,0,0,58.059,11.938Z" transform="translate(1.677 1.677)"/></g><g transform="translate(43.263 32.963)"><path class="c" d="M68.548,62.968A17.485,17.485,0,0,1,51.13,80.386,17.763,17.763,0,0,1,36.043,71.8a5.721,5.721,0,0,1,1.963-7.728,5.611,5.611,0,0,1,7.728,1.963C48.8,71.186,57.14,69.469,57.14,62.968a6.026,6.026,0,0,0-3.68-5.52c-1.472-.613-2.821-.368-4.17-.736a5.777,5.777,0,0,1-4.17-5.52,5.316,5.316,0,0,1,5.029-5.52c2.576-.123,4.293-1.227,4.293-3.8a3.639,3.639,0,0,0-5.765-2.944,5.683,5.683,0,0,1-6.5-9.322c8.954-6.5,23.551-.981,23.551,12.143a14.871,14.871,0,0,1-2.7,8.586A17.447,17.447,0,0,1,68.548,62.968Z" transform="translate(-35.27 -26.873)"/></g></g></svg>