<svg xmlns="http://www.w3.org/2000/svg" xmlns:xlink="http://www.w3.org/1999/xlink" viewBox="255 2381 120.943 120.82"><defs><style>.a{fill:#3c3c3b;}.b{fill:url(#a);}.c{fill:#fff;}</style><radialGradient id="a" cx="84.26" cy="7.079" r="115.505" gradientTransform="translate(0.085 0.007)" gradientUnits="userSpaceOnUse"><stop offset="0.19" stop-color="#fcea10"/><stop offset="0.293" stop-color="#fbdf11"/><stop offset="0.474" stop-color="#f7c113"/><stop offset="0.712" stop-color="#f19116"/><stop offset="0.995" stop-color="#e94f1b"/><stop offset="1" stop-color="#e94e1b"/></radialGradient></defs><g transform="translate(255 2381)"><g transform="translate(0 0)"><g transform="translate(32.638 33.348)"><path class="a" d="M66.34,60.934c-3.925,15.823-15.7,26.495-26.249,23.919C29.419,82.277,24.022,67.313,27.825,51.49c3.925-15.823,15.7-26.495,26.249-23.919C64.745,30.147,70.265,45.111,66.34,60.934Z" transform="translate(-26.609 -27.187)"/></g><path class="b" d="M60.471,120.82a60.317,60.317,0,1,1,45.875-20.975l1.717,17.3-16.682-4.661A62.47,62.47,0,0,1,60.471,120.82Z" transform="translate(0 0)"/><path class="c" d="M58.059,108.717a50.659,50.659,0,1,1,50.659-50.659A50.752,50.752,0,0,1,58.059,108.717Zm0-96.779a46.059,46.059,0,1,0,45.875,46.12A46.224,46.224,0,0,0,58.059,11.938Z" transform="translate(1.677 1.677)"/></g><g transform="translate(48.451 33.359)"><path class="c" d="M59.616,32.72V73.812a5.642,5.642,0,0,1-11.285,0v-36.8H44.406a4.906,4.906,0,0,1,0-9.813h9.935A5.3,5.3,0,0,1,59.616,32.72Z" transform="translate(-39.5 -27.197)"/></g></g></svg>