<svg xmlns="http://www.w3.org/2000/svg" xmlns:xlink="http://www.w3.org/1999/xlink" viewBox="623 2380.18 120.943 120.82"><defs><style>.a{fill:#3c3c3b;}.b{fill:url(#a);}.c{fill:#fff;}</style><radialGradient id="a" cx="87.326" cy="13.212" r="114.056" gradientTransform="translate(0.089 0.013)" gradientUnits="userSpaceOnUse"><stop offset="0.19" stop-color="#fcea10"/><stop offset="0.277" stop-color="#f1e612"/><stop offset="0.429" stop-color="#d3dd18"/><stop offset="0.63" stop-color="#a3cd21"/><stop offset="0.869" stop-color="#61b72e"/><stop offset="1" stop-color="#3aaa35"/></radialGradient></defs><g transform="translate(623 2380.18)"><g transform="translate(0 0)"><g transform="translate(32.638 33.348)"><path class="a" d="M66.34,60.934c-3.925,15.823-15.7,26.495-26.249,23.919C29.419,82.277,24.022,67.313,27.825,51.49c3.925-15.823,15.7-26.495,26.249-23.919C64.745,30.147,70.265,45.111,66.34,60.934Z" transform="translate(-26.609 -27.187)"/></g><path class="b" d="M60.471,120.82a60.317,60.317,0,1,1,45.875-20.975l1.717,17.3-16.682-4.661A62.47,62.47,0,0,1,60.471,120.82Z" transform="translate(0 0)"/><path class="c" d="M58.059,108.717a50.659,50.659,0,1,1,50.659-50.659A50.752,50.752,0,0,1,58.059,108.717Zm0-96.779a46.059,46.059,0,1,0,45.875,46.12A46.224,46.224,0,0,0,58.059,11.938Z" transform="translate(1.677 1.677)"/></g><g transform="translate(45.34 32.677)"><path class="c" d="M70.494,73.938A5.758,5.758,0,0,1,64.729,79.7H42.651c-4.293,0-7.6-5.152-4.416-9.077L57,47.688a6.311,6.311,0,0,0-.981-8.954,6.433,6.433,0,0,0-8.954.981,5.316,5.316,0,1,1-8.218-6.746,17.164,17.164,0,0,1,24.164-2.453c7.36,6.133,8.709,16.436,2.331,24.041L54.058,68.3H64.852A5.627,5.627,0,0,1,70.494,73.938Z" transform="translate(-36.964 -26.64)"/></g></g></svg>